<svg width="18" height="18" viewBox="0 0 18 18" fill="none" xmlns="http://www.w3.org/2000/svg">
<path d="M17.4183 1.12132L17.4183 1.12132L17.4201 1.1256C17.4709 1.2449 17.4981 1.37296 17.5 1.50262V16.492C17.5 16.7571 17.3947 17.0112 17.2073 17.1986C17.0199 17.386 16.7658 17.4913 16.5007 17.4913C16.2357 17.4913 15.9815 17.386 15.7941 17.1986C15.6067 17.0112 15.5014 16.7571 15.5014 16.492V5.11253V3.90439L14.6477 4.75919L2.21869 17.2032L2.21745 17.2044C2.12456 17.2981 2.01403 17.3724 1.89227 17.4231C1.7705 17.4739 1.63989 17.5 1.50797 17.5C1.37605 17.5 1.24544 17.4739 1.12367 17.4231C1.0019 17.3724 0.891381 17.2981 0.798483 17.2044L0.795584 17.2015C0.701923 17.1086 0.627583 16.9981 0.576852 16.8763C0.526119 16.7546 0.5 16.6239 0.5 16.492C0.5 16.3601 0.526119 16.2295 0.576852 16.1077C0.627583 15.986 0.701923 15.8754 0.795586 15.7825L0.796823 15.7813L13.2408 3.35232L14.0956 2.49855H12.8875H1.50797C1.24294 2.49855 0.988775 2.39327 0.801375 2.20587C0.613974 2.01847 0.508693 1.7643 0.508693 1.49928C0.508693 1.23425 0.613974 0.980082 0.801375 0.792681C0.988775 0.605281 1.24294 0.5 1.50797 0.5H16.4974C16.6271 0.50192 16.7551 0.529057 16.8744 0.579905L16.8744 0.579925L16.8787 0.581706C17.1229 0.683108 17.3169 0.877144 17.4183 1.12132Z" fill="white" stroke="black"/>
</svg>
