<svg width="19" height="18" viewBox="0 0 19 18" fill="none" xmlns="http://www.w3.org/2000/svg">
<path d="M17.9183 1.12132L17.9183 1.12132L17.9201 1.1256C17.9709 1.2449 17.9981 1.37296 18 1.50262V16.492C18 16.7571 17.8947 17.0112 17.7073 17.1986C17.5199 17.386 17.2658 17.4913 17.0007 17.4913C16.7357 17.4913 16.4815 17.386 16.2941 17.1986C16.1067 17.0112 16.0014 16.7571 16.0014 16.492V5.11253V3.90439L15.1477 4.75919L2.71869 17.2032L2.71745 17.2044C2.62456 17.2981 2.51403 17.3724 2.39227 17.4231C2.2705 17.4739 2.13989 17.5 2.00797 17.5C1.87605 17.5 1.74544 17.4739 1.62367 17.4231C1.5019 17.3724 1.39138 17.2981 1.29848 17.2044L1.29558 17.2015C1.20192 17.1086 1.12758 16.9981 1.07685 16.8763C1.02612 16.7546 1 16.6239 1 16.492C1 16.3601 1.02612 16.2295 1.07685 16.1077C1.12758 15.986 1.20192 15.8754 1.29559 15.7825L1.29682 15.7813L13.7408 3.35232L14.5956 2.49855H13.3875H2.00797C1.74294 2.49855 1.48878 2.39327 1.30137 2.20587C1.11397 2.01847 1.00869 1.7643 1.00869 1.49928C1.00869 1.23425 1.11397 0.980082 1.30137 0.792681C1.48878 0.605281 1.74294 0.5 2.00797 0.5H16.9974C17.1271 0.50192 17.2551 0.529057 17.3744 0.579905L17.3744 0.579925L17.3787 0.581706C17.6229 0.683108 17.8169 0.877144 17.9183 1.12132Z" fill="white" stroke="white"/>
</svg>
