<svg width="48" height="48" viewBox="0 0 48 48" fill="none" xmlns="http://www.w3.org/2000/svg">
<rect width="48" height="48" rx="24" fill="#F9F9FB" fill-opacity="0.5"/>
<path d="M16 17C16 16.4477 16.4477 16 17 16H19.1529C19.6417 16 20.0589 16.3534 20.1393 16.8356L20.8786 21.2715C20.9508 21.7045 20.7321 22.134 20.3394 22.3303L18.7913 23.1044C19.9076 25.8783 22.1217 28.0924 24.8956 29.2087L25.6697 27.6606C25.866 27.2679 26.2955 27.0492 26.7285 27.1214L31.1644 27.8607C31.6466 27.9411 32 28.3583 32 28.8471V31C32 31.5523 31.5523 32 31 32H29C21.8203 32 16 26.1797 16 19V17Z" fill="#6774BD"/>
</svg>
