<svg width="19" height="19" viewBox="0 0 19 19" fill="none" xmlns="http://www.w3.org/2000/svg">
<path d="M10.125 8.375V8.875H10.625H17.375C17.5408 8.875 17.6997 8.94085 17.8169 9.05806C17.9342 9.17527 18 9.33424 18 9.5C18 9.66576 17.9342 9.82473 17.8169 9.94194C17.6997 10.0592 17.5408 10.125 17.375 10.125H10.625H10.125V10.625V17.375C10.125 17.5408 10.0592 17.6997 9.94194 17.8169C9.82473 17.9342 9.66576 18 9.5 18C9.33424 18 9.17527 17.9342 9.05806 17.8169C8.94085 17.6997 8.875 17.5408 8.875 17.375V10.625V10.125H8.375H1.625C1.45924 10.125 1.30027 10.0592 1.18306 9.94194C1.06585 9.82473 1 9.66576 1 9.5C1 9.33424 1.06585 9.17527 1.18306 9.05806C1.30027 8.94085 1.45924 8.875 1.625 8.875H8.375H8.875V8.375V1.625C8.875 1.45924 8.94085 1.30027 9.05806 1.18306C9.17527 1.06585 9.33424 1 9.5 1C9.66576 1 9.82473 1.06585 9.94194 1.18306C10.0592 1.30027 10.125 1.45924 10.125 1.625V8.375Z" fill="white" stroke="white"/>
</svg>
