<svg width="20" height="20" viewBox="0 0 20 20" fill="none" xmlns="http://www.w3.org/2000/svg">
<path d="M7.00019 11.2C7.00019 11.5314 7.26882 11.8 7.60019 11.8C7.93157 11.8 8.20019 11.5314 8.20019 11.2L8.2002 7.84858L8.97593 8.62431C9.21025 8.85863 9.59015 8.85863 9.82446 8.62431C10.0588 8.39 10.0588 8.0101 9.82446 7.77579L8.02446 5.97578C7.91194 5.86326 7.75933 5.80005 7.6002 5.80005C7.44107 5.80005 7.28845 5.86326 7.17593 5.97578L5.37593 7.77578C5.14162 8.0101 5.14162 8.39 5.37593 8.62431C5.61025 8.85863 5.99014 8.85863 6.22446 8.62431L7.00019 7.84858L7.00019 11.2Z" fill="#52AC66"/>
<path d="M13 8.79995C13 8.46858 12.7314 8.19995 12.4 8.19995C12.0686 8.19995 11.8 8.46858 11.8 8.79995L11.8 12.1514L11.0243 11.3757C10.7899 11.1414 10.4101 11.1414 10.1757 11.3757C9.94142 11.61 9.94142 11.9899 10.1757 12.2242L11.9757 14.0242C12.0883 14.1367 12.2409 14.2 12.4 14.2C12.5591 14.2 12.7117 14.1367 12.8243 14.0242L14.6243 12.2242C14.8586 11.9899 14.8586 11.61 14.6243 11.3757C14.3899 11.1414 14.0101 11.1414 13.7757 11.3757L13 12.1514L13 8.79995Z" fill="#666E7D"/>
</svg>
