<svg width="17" height="17" viewBox="0 0 17 17" fill="none" xmlns="http://www.w3.org/2000/svg">
<path d="M13.4582 8.50008H8.49984V3.54175C8.49984 3.11675 8.2165 2.83341 7.7915 2.83341C4.24984 2.83341 1.4165 5.66675 1.4165 9.20842C1.4165 12.7501 4.24984 15.5834 7.7915 15.5834C11.3332 15.5834 14.1665 12.7501 14.1665 9.20842C14.1665 8.78342 13.8832 8.50008 13.4582 8.50008ZM8.49984 14.0959C5.80817 14.5209 3.25817 12.6084 2.904 9.91675C2.479 7.22508 4.3915 4.67508 7.08317 4.32091V9.20842C7.08317 9.63342 7.3665 9.91675 7.7915 9.91675H12.679C12.3957 12.1126 10.6957 13.8126 8.49984 14.0959ZM10.6248 1.41675C10.1998 1.41675 9.9165 1.70008 9.9165 2.12508V6.37508C9.9165 6.80008 10.1998 7.08342 10.6248 7.08342H14.8748C15.2998 7.08342 15.5832 6.80008 15.5832 6.37508C15.5832 3.61258 13.3873 1.41675 10.6248 1.41675ZM11.3332 5.66675V2.90425C12.7498 3.18758 13.8123 4.25008 14.0957 5.66675H11.3332Z" fill="black"/>
</svg>
