<svg width="17" height="17" viewBox="0 0 17 17" fill="none" xmlns="http://www.w3.org/2000/svg">
<path d="M14.1667 5.66661L9.91673 1.94078C9.52713 1.59231 9.02277 1.39966 8.50007 1.39966C7.97736 1.39966 7.473 1.59231 7.0834 1.94078L2.8334 5.66661C2.60841 5.86783 2.42887 6.11467 2.30673 6.3907C2.1846 6.66673 2.12267 6.96561 2.12507 7.26744V13.4583C2.12507 14.0219 2.34895 14.5624 2.74747 14.9609C3.14598 15.3594 3.68648 15.5833 4.25007 15.5833H12.7501C13.3137 15.5833 13.8542 15.3594 14.2527 14.9609C14.6512 14.5624 14.8751 14.0219 14.8751 13.4583V7.26036C14.8765 6.95972 14.814 6.6622 14.6919 6.38747C14.5698 6.11273 14.3908 5.86704 14.1667 5.66661ZM9.91673 14.1666H7.0834V10.6249C7.0834 10.4371 7.15803 10.2569 7.29087 10.1241C7.4237 9.99124 7.60387 9.91661 7.79173 9.91661H9.2084C9.39626 9.91661 9.57643 9.99124 9.70927 10.1241C9.84211 10.2569 9.91673 10.4371 9.91673 10.6249V14.1666ZM13.4584 13.4583C13.4584 13.6461 13.3838 13.8263 13.2509 13.9591C13.1181 14.092 12.9379 14.1666 12.7501 14.1666H11.3334V10.6249C11.3334 10.0614 11.1095 9.52086 10.711 9.12234C10.3125 8.72383 9.77199 8.49994 9.2084 8.49994H7.79173C7.22815 8.49994 6.68765 8.72383 6.28913 9.12234C5.89062 9.52086 5.66673 10.0614 5.66673 10.6249V14.1666H4.25007C4.06221 14.1666 3.88204 14.092 3.7492 13.9591C3.61636 13.8263 3.54173 13.6461 3.54173 13.4583V7.26036C3.54186 7.15979 3.5634 7.0604 3.60493 6.9688C3.64645 6.8772 3.70701 6.79549 3.78257 6.72911L8.03257 3.01036C8.16183 2.8968 8.32801 2.83417 8.50007 2.83417C8.67213 2.83417 8.8383 2.8968 8.96757 3.01036L13.2176 6.72911C13.2931 6.79549 13.3537 6.8772 13.3952 6.9688C13.4367 7.0604 13.4583 7.15979 13.4584 7.26036V13.4583Z" fill="black"/>
</svg>
