<svg width="17" height="17" viewBox="0 0 17 17" fill="none" xmlns="http://www.w3.org/2000/svg">
<path d="M8.71266 8.65592C9.09061 8.32876 9.39376 7.92413 9.60153 7.46947C9.8093 7.01482 9.91683 6.52079 9.91683 6.02092C9.91683 5.08161 9.54369 4.18077 8.8795 3.51658C8.21531 2.85239 7.31447 2.47925 6.37516 2.47925C5.43585 2.47925 4.53502 2.85239 3.87083 3.51658C3.20663 4.18077 2.8335 5.08161 2.8335 6.02092C2.83349 6.52079 2.94102 7.01482 3.14879 7.46947C3.35656 7.92413 3.65971 8.32876 4.03766 8.65592C3.04609 9.10492 2.20483 9.83 1.61444 10.7445C1.02406 11.6589 0.709539 12.7241 0.708496 13.8126C0.708496 14.0004 0.783124 14.1806 0.915962 14.3134C1.0488 14.4463 1.22897 14.5209 1.41683 14.5209C1.60469 14.5209 1.78486 14.4463 1.9177 14.3134C2.05053 14.1806 2.12516 14.0004 2.12516 13.8126C2.12516 12.6854 2.57293 11.6044 3.36996 10.8074C4.16699 10.0103 5.24799 9.56258 6.37516 9.56258C7.50233 9.56258 8.58334 10.0103 9.38037 10.8074C10.1774 11.6044 10.6252 12.6854 10.6252 13.8126C10.6252 14.0004 10.6998 14.1806 10.8326 14.3134C10.9655 14.4463 11.1456 14.5209 11.3335 14.5209C11.5214 14.5209 11.7015 14.4463 11.8344 14.3134C11.9672 14.1806 12.0418 14.0004 12.0418 13.8126C12.0408 12.7241 11.7263 11.6589 11.1359 10.7445C10.5455 9.83 9.70423 9.10492 8.71266 8.65592ZM6.37516 8.14592C5.95488 8.14592 5.54403 8.02129 5.19458 7.78779C4.84512 7.55429 4.57276 7.22241 4.41192 6.83412C4.25108 6.44582 4.209 6.01856 4.29099 5.60635C4.37299 5.19414 4.57537 4.8155 4.87256 4.51831C5.16975 4.22113 5.54839 4.01874 5.9606 3.93675C6.37281 3.85475 6.80007 3.89683 7.18836 4.05767C7.57666 4.21851 7.90854 4.49087 8.14204 4.84033C8.37553 5.18978 8.50016 5.60063 8.50016 6.02092C8.50016 6.5845 8.27628 7.125 7.87776 7.52352C7.47925 7.92203 6.93875 8.14592 6.37516 8.14592ZM13.2743 8.37258C13.7276 7.86211 14.0238 7.2315 14.127 6.55665C14.2303 5.88181 14.1363 5.19151 13.8564 4.56883C13.5765 3.94615 13.1226 3.41764 12.5493 3.04692C11.9761 2.6762 11.3079 2.47907 10.6252 2.47925C10.4373 2.47925 10.2571 2.55388 10.1243 2.68671C9.99146 2.81955 9.91683 2.99972 9.91683 3.18758C9.91683 3.37544 9.99146 3.55561 10.1243 3.68845C10.2571 3.82129 10.4373 3.89591 10.6252 3.89591C11.1887 3.89591 11.7292 4.1198 12.1278 4.51831C12.5263 4.91683 12.7502 5.45733 12.7502 6.02092C12.7492 6.39296 12.6505 6.75822 12.464 7.08017C12.2776 7.40212 12.0099 7.66948 11.6877 7.8555C11.5826 7.91608 11.4949 8.00259 11.4329 8.10677C11.3709 8.21095 11.3367 8.3293 11.3335 8.4505C11.3305 8.57075 11.3582 8.68977 11.414 8.79635C11.4698 8.90292 11.5518 8.99354 11.6522 9.05967L11.9285 9.24383L12.0206 9.29342C12.8744 9.69838 13.5947 10.3389 14.0967 11.1396C14.5987 11.9402 14.8614 12.8676 14.8539 13.8126C14.8539 14.0004 14.9285 14.1806 15.0614 14.3134C15.1942 14.4463 15.3744 14.5209 15.5622 14.5209C15.7501 14.5209 15.9303 14.4463 16.0631 14.3134C16.196 14.1806 16.2706 14.0004 16.2706 13.8126C16.2764 12.7256 16.0041 11.6552 15.4797 10.703C14.9553 9.75091 14.1961 8.94868 13.2743 8.37258Z" fill="#1640C1"/>
</svg>
