<svg width="22" height="13" viewBox="0 0 22 13" fill="none" xmlns="http://www.w3.org/2000/svg">
<path d="M20.9501 0.931683C20.5754 0.559181 20.0685 0.350098 19.5401 0.350098C19.0117 0.350098 18.5048 0.559181 18.1301 0.931683L10.9501 8.01168L3.87009 0.931683C3.49537 0.559181 2.98846 0.350098 2.46009 0.350098C1.93172 0.350098 1.42482 0.559181 1.05009 0.931683C0.862636 1.11761 0.713847 1.33881 0.612309 1.58253C0.510772 1.82625 0.458496 2.08766 0.458496 2.35168C0.458496 2.61571 0.510772 2.87712 0.612309 3.12084C0.713847 3.36455 0.862636 3.58576 1.05009 3.77168L9.53009 12.2517C9.71602 12.4391 9.93722 12.5879 10.1809 12.6895C10.4247 12.791 10.6861 12.8433 10.9501 12.8433C11.2141 12.8433 11.4755 12.791 11.7192 12.6895C11.963 12.5879 12.1842 12.4391 12.3701 12.2517L20.9501 3.77168C21.1375 3.58576 21.2863 3.36455 21.3879 3.12084C21.4894 2.87712 21.5417 2.61571 21.5417 2.35168C21.5417 2.08766 21.4894 1.82625 21.3879 1.58253C21.2863 1.33881 21.1375 1.11761 20.9501 0.931683Z" fill="black"/>
</svg>
